<?xml version="1.0" standalone="no"?><!DOCTYPE svg PUBLIC "-//W3C//DTD SVG 1.1//EN" "http://www.w3.org/Graphics/SVG/1.1/DTD/svg11.dtd"><svg t="1684056703531" class="icon" viewBox="0 0 1024 1024" version="1.1" xmlns="http://www.w3.org/2000/svg" p-id="988" xmlns:xlink="http://www.w3.org/1999/xlink" width="200" height="200"><path d="M0 0m228.968944 0l566.062112 0q228.968944 0 228.968944 228.968944l0 566.062112q0 228.968944-228.968944 228.968944l-566.062112 0q-228.968944 0-228.968944-228.968944l0-566.062112q0-228.968944 228.968944-228.968944Z" fill="#3FDBA3" p-id="989"></path><path d="M401.967702 616.944099h49.609938v103.036025h-49.609938zM573.69441 616.944099h49.609938v103.036025h-49.609938z" fill="#FFFFFF" p-id="990"></path><path d="M259.498137 256.954037m19.080745 0l468.114286 0q19.080745 0 19.080745 19.080746l0 349.813664q0 19.080745-19.080745 19.080746l-468.114286 0q-19.080745 0-19.080745-19.080746l0-349.813664q0-19.080745 19.080745-19.080746Z" fill="#FFFFFF" p-id="991"></path><path d="M329.46087 709.803727m27.985093 0l309.108074 0q27.985093 0 27.985093 27.985093l0 0q0 27.985093-27.985093 27.985093l-309.108074 0q-27.985093 0-27.985093-27.985093l0 0q0-27.985093 27.985093-27.985093Z" fill="#FFFFFF" p-id="992"></path></svg>